Coordinates
version=1
nRows=17
nColumns=24
inDegrees=yes

Units are S.I. units (second, meters, Newtons, ...)
Angles are in degrees.

endheader
time	pelvis_tilt	pelvis_list	pelvis_rotation	pelvis_tx	pelvis_ty	pelvis_tz	hip_flexion_r	hip_adduction_r	hip_rotation_r	knee_angle_r	ankle_angle_r	subtalar_angle_r	mtp_angle_r	hip_flexion_l	hip_adduction_l	hip_rotation_l	knee_angle_l	ankle_angle_l	subtalar_angle_l	mtp_angle_l	lumbar_extension	lumbar_bending	lumbar_rotation
      0.76650000	     -2.34371436	      0.77547336	      2.14194470	     -0.43076133	      1.07147561	      0.30512142	     12.47651784	      1.14481408	     -2.73979776	    -20.27835535	     11.92185172	     -3.25317891	      3.47038867	     19.27556008	     -3.49475647	     -5.32683272	    -69.47567210	      6.15688818	      6.15574213	      1.72484668	     -6.61103256	      2.02972353	     -2.28120102
      0.77066667	     -2.28837533	      0.95973455	      2.11686200	     -0.42521438	      1.07268639	      0.30530707	     11.89274802	      0.98317668	     -2.66727715	    -19.88662116	     12.00985025	     -3.22077703	      3.44470579	     19.66780853	     -3.30038138	     -5.45408294	    -68.98686283	      6.47483214	      6.56976191	      1.72741032	     -6.68271789	      1.80288714	     -2.16379563
      0.77483333	     -2.22913787	      1.14906042	      2.09076181	     -0.41968282	      1.07388106	      0.30546378	     11.30575193	      0.81290298	     -2.59777040	    -19.49287118	     12.06977565	     -3.20689792	      3.41929567	     20.04025397	     -3.09283275	     -5.57677967	    -68.43289827	      6.78286318	      6.99397052	      1.73703833	     -6.76080644	      1.57620536	     -2.07458856
      0.77900000	     -2.19475935	      1.35912497	      2.05715032	     -0.41414935	      1.07500372	      0.30560615	     10.75447157	      0.61619711	     -2.52936565	    -19.11795767	     12.11782281	     -3.18777722	      3.40045276	     20.41851377	     -2.85569538	     -5.70301483	    -67.80652057	      7.07386318	      7.42463934	      1.75096055	     -6.81150670	      1.33008847	     -2.00876351
      0.78316667	     -2.12181682	      1.55310776	      2.01355638	     -0.40861893	      1.07614365	      0.30575485	     10.15484622	      0.44011275	     -2.44927479	    -18.72291645	     12.17964791	     -3.16894369	      3.37884155	     20.73723680	     -2.64535177	     -5.84294337	    -67.12282263	      7.36035437	      7.88403959	      1.77025948	     -6.90479606	      1.10183514	     -1.91174526
      0.78733333	     -2.05766536	      1.73398203	      1.96480599	     -0.40308281	      1.07721321	      0.30591113	      9.56176824	      0.27942523	     -2.35915082	    -18.31798845	     12.24105078	     -3.16301919	      3.34934704	     21.05256014	     -2.45455375	     -5.99205098	    -66.38965566	      7.63482272	      8.33684926	      1.79767095	     -6.98821262	      0.87261892	     -1.78723705
      0.79150000	     -2.01072331	      1.91663571	      1.91172458	     -0.39755117	      1.07820368	      0.30604322	      8.99468713	      0.11301620	     -2.26942225	    -17.92591885	     12.28915168	     -3.16552225	      3.31796117	     21.36949684	     -2.25485051	     -6.13688392	    -65.59840628	      7.89491741	      8.77505648	      1.82962529	     -7.05190469	      0.65028754	     -1.67844312
      0.79566667	     -1.94363607	      2.10000938	      1.85001211	     -0.39203089	      1.07918614	      0.30617760	      8.40756703	     -0.05423383	     -2.17425272	    -17.53341431	     12.33930617	     -3.16641573	      3.28660899	     21.64534800	     -2.05509140	     -6.28545096	    -64.74663299	      8.14009949	      9.19593358	      1.86369669	     -7.14020061	      0.43233686	     -1.57439862
      0.79983333	     -1.87291325	      2.27993001	      1.78418849	     -0.38651176	      1.08013240	      0.30630020	      7.81803244	     -0.21944729	     -2.07830525	    -17.14142027	     12.38638296	     -3.17217521	      3.25467392	     21.89913862	     -1.85737358	     -6.43444983	    -63.83773770	      8.36526865	      9.58427614	      1.89909073	     -7.23217289	      0.21678342	     -1.46914377
      0.80400000	     -1.83025391	      2.45410293	      1.71120349	     -0.38099655	      1.08094797	      0.30642025	      7.26720064	     -0.38043175	     -1.97647781	    -16.76296369	     12.44026372	     -3.17887151	      3.22095833	     22.16997932	     -1.66552953	     -6.58661204	    -62.88619133	      8.57997770	      9.94297644	      1.93640912	     -7.29146532	      0.00582272	     -1.35614646
      0.80816667	     -1.81008653	      2.63579683	      1.63638846	     -0.37548600	      1.08168422	      0.30651318	      6.75141224	     -0.55580718	     -1.88771503	    -16.40571088	     12.47968508	     -3.17788557	      3.19804240	     22.44600303	     -1.45582764	     -6.72813944	    -61.87456303	      8.77551245	     10.25153901	      1.96215778	     -7.32175631	     -0.20532330	     -1.28251784
      0.81233333	     -1.72758279	      2.78319414	      1.55686468	     -0.36999341	      1.08245731	      0.30663217	      6.15119639	     -0.68638451	     -1.76676122	    -16.00558155	     12.54119958	     -3.20530639	      3.15602571	     22.64366081	     -1.29529082	     -6.87418516	    -60.82926766	      8.95945621	     10.52997345	      2.00388738	     -7.43613776	     -0.38731370	     -1.12056648
      0.81650000	     -1.71068544	      2.94263696	      1.47161353	     -0.36448247	      1.08305314	      0.30672609	      5.64054709	     -0.83768571	     -1.65761421	    -15.64606598	     12.60078592	     -3.22265299	      3.11378852	     22.89228207	     -1.11341578	     -7.01788565	    -59.73015195	      9.12174296	     10.75495168	      2.04329624	     -7.46173063	     -0.57951532	     -0.99978364
      0.82066667	     -1.65812496	      3.09852177	      1.38598917	     -0.35900874	      1.08365453	      0.30681550	      5.09278799	     -0.98636738	     -1.55172112	    -15.28364628	     12.66145789	     -3.23289757	      3.06701340	     23.08644652	     -0.93165359	     -7.14925470	    -58.58170047	      9.26999284	     10.93179646	      2.08349316	     -7.54095573	     -0.76552579	     -0.87385478
      0.82483333	     -1.66953434	      3.24410452	      1.30229007	     -0.35352274	      1.08406972	      0.30687958	      4.62800853	     -1.12963365	     -1.46363334	    -14.95156989	     12.71850353	     -3.23916745	      3.03884765	     23.33702531	     -0.75565527	     -7.26997652	    -57.39607949	      9.40913178	     11.07536631	      2.10643501	     -7.53122172	     -0.93337192	     -0.80211701
      0.82900000	     -1.62890226	      3.36944859	      1.21610336	     -0.34806376	      1.08450187	      0.30695128	      4.09484116	     -1.24699056	     -1.34798477	    -14.58773972	     12.79839026	     -3.26555535	      2.98392765	     23.51785770	     -0.60440045	     -7.38378406	    -56.17322325	      9.52062902	     11.15396612	      2.14646501	     -7.60098262	     -1.08787188	     -0.63290103
      0.83316667	     -1.61922663	      3.50168027	      1.12872042	     -0.34260254	      1.08482741	      0.30700874	      3.60790741	     -1.37734969	     -1.24907360	    -14.25066537	     12.87451810	     -3.27873516	      2.92662942	     23.71213058	     -0.43975345	     -7.48736071	    -54.89886262	      9.61756274	     11.19897116	      2.18584622	     -7.62663041	     -1.24496361	     -0.50736128
